<?xml version="1.0" encoding="UTF-8"?>
<svg width="42px" height="42px" viewBox="0 0 42 42" version="1.1" xmlns="http://www.w3.org/2000/svg" xmlns:xlink="http://www.w3.org/1999/xlink">
    <!-- Generator: Sketch 52.6 (67491) - http://www.bohemiancoding.com/sketch -->
    <title>facebook_small_icon</title>
    <desc>Created with Sketch.</desc>
    <g id="Page-1" stroke="none" stroke-width="1" fill="none" fill-rule="evenodd">
        <g id="Macbook-Half-Size" transform="translate(-391.000000, -2999.000000)">
            <g id="footer" transform="translate(122.000000, 2919.000000)">
                <g id="facebook_small_icon" transform="translate(270.000000, 81.000000)">
                    <g id="facebook_icon">
                        <path d="M26.931861,10.5826077 L26.931861,6.0013963 C26.7699644,6.0013963 26.6080245,6.00108113 26.4461279,6.00144132 C26.0562933,6.00234181 25.6664155,6.00045079 25.2765376,6.00148635 C24.8010747,6.00274702 24.3256984,5.99941523 23.8501922,6.00153137 C23.4312804,6.00342239 23.0122386,5.99716402 22.5933702,6.00166644 C21.9610374,6.0084651 21.3608153,6.04074744 20.7543531,6.24367147 C20.1696446,6.4393466 19.6208169,6.78193567 19.1532408,7.19282644 C18.8824886,7.43073426 18.6318869,7.68552616 18.4049023,7.96877335 C18.3129905,8.08642156 18.2273621,8.20875229 18.1474105,8.33527026 C17.9074256,8.71486922 17.7178385,9.13237854 17.5594953,9.57501136 C17.5239179,9.6746499 17.4889472,9.77455858 17.4556232,9.87496252 C17.2114783,10.6099374 17.2034181,11.4122235 17.2034181,12.1845684 C17.2034181,12.2812804 17.2034181,12.381009 17.2034181,12.4830338 C17.2034181,14.0131359 17.2034181,16.0530469 17.2034181,16.0530469 L13,16.0530469 L13,21.0957563 L17.0517484,21.0957563 L17.1600839,21.0957563 L17.1600839,33.747554 L21.9701809,33.747554 L21.9701809,20.9831959 L26.3360156,21.0443837 L26.9246242,16.0860947 L21.9917614,16.075559 L21.9917614,12.2485028 C21.9917614,12.2485028 21.9809278,10.6163759 23.3134547,10.5938638 L26.931861,10.5826077 Z" id="f" fill="#FFFFFF"></path>
                        <circle id="Oval" stroke="#FFFFFF" cx="20" cy="20" r="20"></circle>
                    </g>
                </g>
            </g>
        </g>
    </g>
</svg>