<?xml version="1.0" encoding="UTF-8"?>
<svg width="42px" height="42px" viewBox="0 0 42 42" version="1.1" xmlns="http://www.w3.org/2000/svg" xmlns:xlink="http://www.w3.org/1999/xlink">
    <!-- Generator: Sketch 52.6 (67491) - http://www.bohemiancoding.com/sketch -->
    <title>twitter_small_icon</title>
    <desc>Created with Sketch.</desc>
    <g id="Page-1" stroke="none" stroke-width="1" fill="none" fill-rule="evenodd">
        <g id="Macbook-Half-Size" transform="translate(-446.000000, -2999.000000)">
            <g id="footer" transform="translate(122.000000, 2919.000000)">
                <g id="twitter_small_icon" transform="translate(325.000000, 81.000000)">
                    <g id="twitter_icon">
                        <path d="M30.5995899,13.4058433 C30.5995899,13.4058433 32.9627382,11.3916089 32.8878707,10.4927492 C32.8878707,10.4927492 30.1611956,11.7056147 29.5623453,11.7597662 C29.5623453,11.7597662 29.3727318,11.5665563 29.0623614,11.3125169 C28.9588747,11.2278371 28.8420204,11.1363884 28.714176,11.0431225 C28.4774619,10.8680842 28.2282325,10.7176686 27.9694485,10.59024 C27.8400789,10.5265485 27.7083767,10.4685355 27.5748353,10.4157924 C26.705538,10.0300086 25.7531642,9.93551617 24.8183298,10.0390945 C24.6847436,10.0539043 24.5516059,10.0727574 24.4190514,10.0953357 C22.8685451,10.3411524 21.5425516,11.2941181 20.7081087,12.5934351 C20.6331963,12.7119596 20.5637566,12.8336187 20.5004624,12.9583669 C20.3740534,13.2078634 20.2721816,13.4697166 20.2005438,13.7428816 C20.172418,13.8437342 20.1416457,13.9611683 20.1126227,14.0865526 C20.0835549,14.2119368 20.0561469,14.3452712 20.0347498,14.4779241 C19.9492061,15.0085811 20.0347498,16.730434 20.0347498,16.730434 C20.0347498,16.730434 13.1377442,16.9470398 8.71078287,11.1425213 C8.71078287,11.1425213 6.52944275,15.3226323 10.2933624,18.2465385 C10.2933624,18.2465385 9.52791069,18.5930715 8.08210224,17.7267391 C8.08210224,17.7267391 7.36348192,20.9104996 12.0256322,23.0980005 L9.75879326,23.0980005 C9.75879326,23.0980005 10.550083,26.6283394 14.7632077,26.9532027 C14.7632077,26.9532027 12.7743071,29.6605031 7,29.2489611 C7,29.2489611 12.209773,32.9175862 18.9216509,31.2149498 C19.0414658,31.1845124 19.161819,31.152394 19.2826208,31.1185493 C20.3449408,30.7866899 21.4142585,30.396863 22.3854726,29.8740652 C22.4702087,29.8295901 22.5549898,29.7840248 22.6398606,29.7374146 C22.8945177,29.5978564 23.1502066,29.4492579 23.4068823,29.2914827 C23.4068823,29.2914827 30.4638953,25.4190628 31.0412587,15.4133996 C31.0412587,15.4133996 32.5243888,14.5320301 33.476,12.8427045 C33.476,12.8427499 30.8027504,13.4708069 30.5995899,13.4058433 Z" id="twitter_bird" fill="#FFFFFF"></path>
                        <circle id="Oval" stroke="#FFFFFF" cx="20" cy="20" r="20"></circle>
                    </g>
                </g>
            </g>
        </g>
    </g>
</svg>